<?xml version="1.0" encoding="utf-8"?>
<!-- Generator: Adobe Illustrator 22.1.0, SVG Export Plug-In . SVG Version: 6.00 Build 0)  -->
<svg version="1.1" id="Capa_1" xmlns="http://www.w3.org/2000/svg" xmlns:xlink="http://www.w3.org/1999/xlink" x="0px" y="0px"
	 viewBox="0 0 344.5 46.6" style="enable-background:new 0 0 344.5 46.6;" xml:space="preserve">
<style type="text/css">
	.st0{fill:none;}
	.st1{font-family:'Syncopate-Bold';}
	.st2{font-size:21px;}
	.st3{letter-spacing:4;}
</style>
<rect x="-9.7" y="15.5" class="st0" width="411.5" height="46.6"/>
<text id="XMLID_1_" transform="matrix(1 0 0 1 52.9839 29.5623)" class="st1 st2 st3">NACHO JIMÉNEZ</text>
<g id="XMLID_369_">
	<path id="XMLID_388_" d="M21.5,19.2L21.5,19.2C21.5,19.2,21.4,19.2,21.5,19.2c-0.2,0-0.2,0-0.2,0v0c-1.1,0.1-6.5,0.6-9.3,6.1
		l9.3,11.5v0.2l0.1-0.1l0.1,0.1v-0.2l9.3-11.5C28,19.8,22.6,19.2,21.5,19.2z M17.8,28.5c0,0-1.9-0.3-3.1-1c-1.2-0.7-1.4-3.9-1.4-3.9
		l1,0.4c2.7,0.8,4.1,2.8,4.9,5L17.8,28.5z M27.9,27.5c-1.2,0.7-3.1,1-3.1,1l-1.5,0.6c0.8-2.2,2.2-4.2,4.9-5l1-0.4
		C29.2,23.6,29.1,26.8,27.9,27.5z"/>
	<path id="XMLID_397_" d="M36.1,29.1C29.4,18,33.3,3.2,33.3,3.2l-8.3,11.1c-0.7,0.9-1.7,1.4-2.9,1.4H22h-1.7c-1.1,0-2.2-0.5-2.9-1.4
		L9.2,3.2c0,0,3.9,14.8-2.7,25.9C6,30,6.4,31.2,7.4,31.6c3.2,1.2,9.6,4.2,13.4,9.6l0.5,0.8c3.7-5.9,10.5-9.1,13.9-10.4
		C36.2,31.2,36.6,30,36.1,29.1z M31.6,7.9c0,0-2.6,7.8,0.4,13.7c-0.9-1.4-2.9-4-6.2-5.3L31.6,7.9z M10.9,7.9l5.8,8.4
		c-3.4,1.3-5.4,3.9-6.2,5.3C13.5,15.7,10.9,7.9,10.9,7.9z M30.9,30.6c-3.2,1.6-5.4,3.9-6.9,6c-2.3-2-4.5-0.8-5.5-0.1
		c-1.5-2.1-3.7-4.4-6.9-5.9c-0.9-0.4-1.4-1.4-1.1-2.4l0.5-2.2c1-4.3,4.9-7.3,9.3-7.3H22h0.2c4.4,0,8.3,3,9.3,7.3l0.5,2.2
		C32.3,29.1,31.8,30.1,30.9,30.6z"/>
</g>
</svg>
